<svg xmlns="http://www.w3.org/2000/svg" xmlns:xlink="http://www.w3.org/1999/xlink" viewBox="0 0 307.71 126.69"><defs><style>.cls-1{isolation:isolate;}.cls-2{fill:#7e7d82;}.cls-3{fill:#00a5f1;}.cls-4{fill:#7a67f8;}.cls-5{fill:#f85977;}.cls-6{fill:#159bff;}.cls-7{fill:#67e5ad;}.cls-10,.cls-11,.cls-8,.cls-9{fill-opacity:0.4;mix-blend-mode:multiply;}.cls-8{fill:url(#linear-gradient);}.cls-9{fill:url(#linear-gradient-2);}.cls-10{fill:url(#linear-gradient-3);}.cls-11{fill:url(#linear-gradient-4);}.cls-12{fill:#1a1a1a;}</style><linearGradient id="linear-gradient" x1="5354" y1="-155.12" x2="5359.22" y2="-160.63" gradientTransform="translate(5415.03 -104.87) rotate(180)" gradientUnits="userSpaceOnUse"><stop offset="0" stop-opacity="0.9"/><stop offset="0.79" stop-opacity="0"/></linearGradient><linearGradient id="linear-gradient-2" x1="4107.77" y1="-7617.49" x2="4112.99" y2="-7622.99" gradientTransform="translate(7694.34 4168.27) rotate(-90)" xlink:href="#linear-gradient"/><linearGradient id="linear-gradient-3" x1="-2096.01" y1="1045.32" x2="-2090.78" y2="1039.81" gradientTransform="translate(1096.81 2161.37) rotate(90)" xlink:href="#linear-gradient"/><linearGradient id="linear-gradient-4" x1="-3314.54" y1="-6429.58" x2="-3309.31" y2="-6435.09" gradientTransform="translate(3381.84 6505.21)" xlink:href="#linear-gradient"/></defs><g class="cls-1"><g id="Layer_2" data-name="Layer 2"><g id="Layer_2-2" data-name="Layer 2"><path class="cls-2" d="M249.18,21.78l10,10,29.69,0L276.49,18.93H267l-15-15a9,9,0,0,0-12.69,0L223.85,19.36V39.6l17.82-17.82A5.32,5.32,0,0,1,249.18,21.78Z"/><path class="cls-2" d="M203.58,67.38a5.32,5.32,0,0,1,0-7.51L214.35,49.1V19.88L201.5,32.28V41.7L186.2,57a9,9,0,0,0,0,12.68l15.47,15.47h19.68Z"/><path class="cls-2" d="M241.67,105.47l-11-11H201.92l13.14,13.06h9l15.23,15.24a9,9,0,0,0,12.69,0l15.39-15.4V87.26l-18.2,18.21A5.32,5.32,0,0,1,241.67,105.47Z"/><path class="cls-3" d="M305.09,57,289.76,41.67H269.07l18.2,18.2a5.32,5.32,0,0,1,0,7.51L276.72,77.92l.27,45.54,13.75-14.33V84l14.35-14.35A9,9,0,0,0,305.09,57Z"/><rect class="cls-3" x="228.68" y="46.33" width="34.04" height="34.04" rx="3.21" transform="translate(27.17 192.29) rotate(-45)"/><g id="UNO_Symbol"><path class="cls-4" d="M88.37,98.81h0c-7.25,0-13.74-5-21.85-13.15L48.87,68.19l5.51-5.57L72,80.11C79.83,87.93,84.41,91,88.36,91h0c4,0,8.81-3.2,16.67-11.06l9-9.12c4.53-4.54,6.53-8.49,6.12-12.11-.33-2.94-2.27-6.09-6.11-9.93l-.08-.08c-4.14-4.4-9.2-9.31-14.49-12-1-5-4.2-9-4.66-9.71,9.67,1.42,18.3,9.41,24.81,16.33,7.09,7.11,14.76,18.25,0,33l-9,9.12C102.33,93.7,95.74,98.81,88.37,98.81Z"/><path class="cls-5" d="M64.58,72.74l16.5-16.69C88.9,48.23,92,43.65,92,39.71S88.76,30.89,80.89,23l-9.12-9c-9.27-9.27-14.9-7.16-22,0l-.08.09c-3.92,3.68-8.23,8.09-11,12.73a20.82,20.82,0,0,0-10.16,3.86c2.3-8.63,9.5-16.33,15.8-22.26,7.11-7.09,18.25-14.75,33.05.05l9.12,9c8.27,8.27,13.39,14.87,13.37,22.25s-5,13.74-13.15,21.85L70.14,78.25Z"/><path class="cls-6" d="M31.84,98.41c-9.11-1.93-17.23-9.49-23.43-16.08C5.17,79.09.82,74.06.11,67.79s2-12.19,8.34-18.51l9-9.12c8.26-8.26,14.86-13.37,22.22-13.37h0c7.26,0,13.74,5,21.85,13.15L79.48,57.67,74,63.24,56,45.49c-7.82-7.82-12.4-10.87-16.34-10.87h0c-4,0-8.81,3.2-16.67,11.06L14,54.8c-4.54,4.54-6.53,8.49-6.12,12.11.33,2.94,2.27,6.09,6.1,9.93l.08.08c3.95,4.19,8.72,8.85,13.74,11.63C28.23,93,30.86,96.93,31.84,98.41Z"/><path class="cls-7" d="M66.92,126.69c-4.9,0-10.46-2.26-16.67-8.47l-9.13-9C23.31,91.4,23.27,82.75,40.9,65.11L58.19,47.64l5.58,5.5L46.45,70.63C38.63,78.46,35.58,83,35.58,87s3.2,8.82,11.06,16.68l9.12,9c9.27,9.27,14.9,7.15,22,0l.08-.08c4.21-3.95,8.9-8.79,11.68-13.82a21,21,0,0,0,9.75-3.66c-2,9-9.5,17-16,23.14C79.17,122.38,73.68,126.68,66.92,126.69Z"/><polygon class="cls-8" points="54.04 51.84 58.2 47.63 63.77 53.14 59.75 57.2 54.04 51.84"/><polygon class="cls-9" points="75.27 53.51 79.48 57.67 73.97 63.24 69.91 59.22 75.27 53.51"/><polygon class="cls-10" points="53.08 72.35 48.87 68.19 54.38 62.62 58.44 66.64 53.08 72.35"/><polygon class="cls-11" points="74.3 74.04 70.13 78.25 64.57 72.74 68.59 68.68 74.3 74.04"/></g><path class="cls-12" d="M173,41.45c-12.27.39-24.14,3.6-36.4,4v9.11C149.09,51,160.56,45,173,41.45Z"/><path class="cls-12" d="M136.63,85.23c12.26-.38,24.13-3.59,36.4-4v-9.1c-12.47,3.52-23.94,9.56-36.4,13.08Z"/><path class="cls-12" d="M136.89,80a.29.29,0,0,1-.17,0,.48.48,0,0,1-.09-.13.28.28,0,0,1-.07-.17c0-.09.07-.1.07-.2s0-.08,0-.17v-.37c0-.09,0-.08,0-.17s0-.1,0-.19,0-.1,0-.19,0-.09,0-.18V78c0-.09,0-.08,0-.17s.07-.11.07-.2,0-.09,0-.18,0-.1,0-.19,0-.08,0-.17v-.37c0-.09,0-.1,0-.19v-.55c0-.09,0-.08,0-.17s0-.09,0-.18,0-.1,0-.19v-.18c0-.09,0-.1,0-.19s-.07-.08-.07-.17v-.18c0-.09,0-.1,0-.19V74.3c0-.1,0-.09,0-.18s.07-.11.07-.2-.07-.07-.07-.13,0-.1,0-.19,0-.09,0-.18v-.18c0-.09,0-.1,0-.19v-.19c0-.09,0-.08,0-.17s.07-.11.07-.2,0-.08,0-.17v-.55c0-.09,0-.09,0-.18v-.18c0-.09,0-.1,0-.19v-.37c0-.09,0-.08,0-.17s0-.1,0-.19v-.18c0-.09,0-.09,0-.18s0-.1,0-.19,0-.08,0-.17.07-.11.07-.2,0-.09,0-.18v-.18c0-.09,0-.08,0-.17s0-.1,0-.2,0-.09,0-.19,0-.08,0-.17v-.37c0-.09,0-.1,0-.19s0-.08,0-.17v-.18c0-.1,0-.09,0-.18s0-.1,0-.19V67c0-.09,0-.09,0-.18s0-.1,0-.19v-.18c0-.09,0-.1,0-.19V66.1c0-.1,0-.09,0-.18s0-.08,0-.17,0-.1,0-.19,0-.09,0-.18,0-.1,0-.19,0-.08,0-.17,0-.1,0-.2,0-.1,0-.19-.07-.07-.07-.16,0-.1,0-.19v-.52c0-.09,0-.08,0-.18s0-.1,0-.19,0-.08,0-.17v-.37c0-.09.07-.1.07-.2s0-.08,0-.17,0-.08,0-.17v-.19c0-.09,0-.1,0-.19s0-.08,0-.17,0-.1,0-.19v-.19c0-.09,0-.08,0-.17V61c0-.1.07-.11.07-.2s0-.09,0-.18v-.18c0-.09,0-.08,0-.17s0-.1,0-.2,0-.08,0-.17,0-.1,0-.19v-.37c0-.09,0-.08,0-.17s.07-.14.1-.18,0-.13.06-.2a1.36,1.36,0,0,1,.17-.16l.19,0c.1,0,.1-.06.2-.08s.1,0,.19,0,.1-.06.2-.09l.2-.05.16,0,.2-.06.19,0c.1,0,.1,0,.2,0s.1-.09.19-.12l.2-.05c.1,0,.1,0,.19,0s.1-.06.2-.09.1,0,.2,0,.09-.06.19-.09l.2-.06c.1,0,.1-.06.19-.09s.1,0,.2,0l.16-.05c.1,0,.1,0,.2,0l.19-.06c.1,0,.1-.09.2-.12l.2-.07c.09,0,.09,0,.19,0s.1-.06.2-.09.1,0,.19,0,.1-.06.2-.09l.2-.07c.09,0,.09,0,.19,0s.1-.07.2-.1.09-.07.16-.09.1,0,.2,0,.09,0,.19,0,.1-.07.2-.1.09-.07.19-.1.1,0,.2,0l.19-.07.2-.07c.1,0,.1,0,.2,0a1.74,1.74,0,0,0,.19-.1c.07,0,.1.09.13.11s.13,0,.13.07a.25.25,0,0,1,0,.17v.18c0,.09,0,.08,0,.17s0,.11,0,.2,0,.13,0,.22.07.07.07.16v.19c0,.09-.07.11-.07.2s0,.08,0,.17,0,.08,0,.17,0,.11,0,.2v.21c0,.09,0,.11,0,.2s0,.08,0,.17v.18a.74.74,0,0,1-.07.21.32.32,0,0,1-.06.17.46.46,0,0,1-.17.15c-.05.06-.13.05-.19.07l-.2.07-.2.07c-.09,0-.09.07-.19.1s-.1.07-.2.1l-.19.07a1.39,1.39,0,0,1-.23,0c-.1,0-.1.07-.2.1s-.09,0-.19,0-.1,0-.2,0l-.19.07c-.1,0-.1.06-.2.1l-.2.06-.19.07c-.1,0-.1.06-.2.09s-.1,0-.19,0l-.2.06c-.1,0-.1.06-.2.09a.54.54,0,0,0-.19.13s-.13.07-.16.11-.1.12-.1.18a.6.6,0,0,0-.07.2v.55c0,.09,0,.08,0,.18s0,.08,0,.17-.07.11-.07.2v.18c0,.06,0,0,0,.15s0,.1,0,.19,0,.08,0,.17,0,.1,0,.19v.55c0,.09,0,.08,0,.17v.37c0,.09,0,.1,0,.19s0,.08,0,.18,0,.1,0,.19,0,0,0,.14v.18c0,.09,0,.08,0,.18s-.07.11-.07.2v.36c0,.07.07.11.1.13a.24.24,0,0,0,.07.16.4.4,0,0,0,.16.07.42.42,0,0,0,.19,0c.1,0,.1-.07.2-.1s.1-.06.2-.09.09,0,.19,0l.2-.07c.1,0,.1-.06.23-.11s.09,0,.19,0,.1-.06.2-.1l.19-.06c.1,0,.1-.07.2-.1s.1,0,.2,0,.09-.09.19-.13a1.39,1.39,0,0,0,.23,0c.1,0,.1,0,.2,0l.19-.07c.07,0,.13,0,.16,0s.17,0,.2,0,0,.11.07.16a.16.16,0,0,1,.06.13c0,.09,0,.1,0,.19s0,.08,0,.17,0,.08,0,.18v.21c0,.09-.06.11-.06.2s0,.08,0,.18,0,.1,0,.19,0,.08,0,.17,0,.1,0,.19,0,.08,0,.18V68c0,.09,0,.08,0,.17s-.06.12-.06.21,0,.08,0,.17a.56.56,0,0,1-.06.2c0,.05-.07.12-.1.16s-.1.1-.17.15-.09.1-.16.12-.1.06-.19.1-.1,0-.2,0a1.67,1.67,0,0,0-.23.11l-.19.07-.2.06-.2.07-.19.07c-.1,0-.1,0-.2,0s-.1.07-.19.1l-.23.07c-.1,0-.1,0-.2,0l-.19.06c-.1,0-.1.09-.2.13s-.1,0-.2,0a.55.55,0,0,0-.19.09.57.57,0,0,0-.13.16.26.26,0,0,0-.1.19.32.32,0,0,0-.06.17v.55c0,.09,0,.1,0,.19V72c0,.09,0,.08,0,.17v.4c0,.09,0,.1,0,.19V73c0,.1,0,.09,0,.18s0,.08,0,.17,0,.1,0,.19,0,.1,0,.19,0,.09,0,.18v.91c0,.09,0,.08,0,.17s-.07.12-.07.21v.18c0,.09.07.07.07.16s0,.1,0,.19v.37c0,.09,0,.08,0,.2s-.07.12-.07.21V77c0,.1,0,.09,0,.18v.36c0,.09,0,.08,0,.18s0,.1,0,.19,0,.08,0,.17-.07.11-.07.2.07.07.07.17-.07.14-.1.21-.07.11-.1.15a.41.41,0,0,1-.13.19c-.06,0-.13.08-.19.1s-.1,0-.2,0-.1.06-.2.09l-.22.07c-.1,0-.1,0-.2,0s-.1,0-.2,0l-.19.05c-.1,0-.1.06-.2.09s-.1.06-.19.09-.1,0-.2,0-.1.06-.23.1l-.19,0c-.1,0-.1,0-.2,0l-.2.05c-.09,0-.09.09-.19.12s-.1,0-.2,0A.62.62,0,0,1,136.89,80Z"/><path class="cls-12" d="M152.68,74.66a.34.34,0,0,1-.19,0c-.07,0-.13.09-.2.08l-.19.08-.2.08a1.33,1.33,0,0,1-.19,0,1.94,1.94,0,0,1-.2,0,.68.68,0,0,0-.2,0,.34.34,0,0,1-.19.05.49.49,0,0,1-.2,0l-.16,0c-.07,0-.13,0-.2,0a.34.34,0,0,1-.19,0l-.2,0a.26.26,0,0,0-.13-.07c-.07,0-.16.07-.2,0s-.09,0-.16-.06-.1-.05-.16-.05a.58.58,0,0,1-.17,0,.41.41,0,0,0-.16-.06L149,75l-.17-.06s-.06-.1-.09-.11-.13,0-.17-.06a.53.53,0,0,0-.13-.1s-.06-.07-.1-.09-.09,0-.16-.08,0-.11-.06-.16,0-.08-.07-.13-.06-.06-.1-.11-.1,0-.13-.1,0-.11-.06-.16,0-.11-.07-.16-.06-.06-.1-.11a.31.31,0,0,1-.06-.16c0-.05,0-.12,0-.17s0-.11,0-.17-.06-.07-.06-.13,0-.15,0-.2a.22.22,0,0,0,0-.14c0-.06-.06-.09-.06-.15v-.37c0-.06,0-.11,0-.17v-.18c0-.06,0-.11,0-.17s0-.11,0-.17v-.19s0-.15,0-.21V70.8c0-.06,0-.14,0-.2v-.18c0-.06,0-.11,0-.17s0-.13,0-.19v-.19c0-.06,0-.11,0-.17s0-.13,0-.19,0-.11,0-.17,0-.14,0-.2v-.36c0-.06,0-.11,0-.17v-.37c0-.06,0-.13,0-.19v-.19c0-.06,0-.11,0-.17s0-.16,0-.22v-.19c0-.06,0-.11,0-.17s0-.13,0-.19v-.18c0-.07,0-.11,0-.17v-1.1c0-.06,0-.14,0-.2s0-.11,0-.17v-.18c0-.06,0-.13,0-.19v-.55c0-.06,0-.11,0-.17v-.4c0-.06,0-.13,0-.19s0-.11,0-.17v-.19c0-.06,0-.13,0-.19s0-.11,0-.17v-.55c0-.06,0-.13,0-.2V61c0-.06,0-.11,0-.17v-.18c0-.06,0-.14,0-.2s0-.14,0-.2.06-.14.06-.18,0-.14,0-.2v-.18a.65.65,0,0,0,.07-.21c0-.06,0-.13,0-.19s0-.11,0-.17,0-.15,0-.21.07-.12.07-.18,0-.12,0-.19,0-.14,0-.2a.61.61,0,0,0,.1-.22c0-.07,0-.12,0-.19s0-.14.07-.21a1.28,1.28,0,0,0,.13-.21.52.52,0,0,1,0-.19c0-.07.07-.12.1-.19s.07-.12.1-.19a.56.56,0,0,1,.1-.19.85.85,0,0,1,.09-.19,3.31,3.31,0,0,0,.23-.4,1.08,1.08,0,0,0,.13-.2s.13-.13.17-.19.06-.15.09-.19.12-.13.17-.18l.16-.16c.07-.06.07-.15.13-.21a1.74,1.74,0,0,0,.2-.13l.13-.21c.06-.06.16-.06.19-.11s.1-.13.17-.19l.19-.16s.1-.08.17-.13.13-.08.19-.14.13,0,.2-.11l.16-.16.2-.08a.77.77,0,0,1,.19-.14.81.81,0,0,1,.2-.14l.2-.11.19-.08a.81.81,0,0,0,.2-.14c.06,0,.13,0,.19,0a.42.42,0,0,1,.2-.08l.19-.08c.07,0,.14-.09.2-.11a2,2,0,0,1,.2-.11c.06,0,.13,0,.19,0l.2-.09.19-.08a.37.37,0,0,0,.2-.05,1.94,1.94,0,0,0,.2,0,.67.67,0,0,1,.19,0,.73.73,0,0,1,.2-.05,1.33,1.33,0,0,0,.19,0,1.36,1.36,0,0,0,.2,0,.41.41,0,0,1,.19,0c.07,0,.14-.05.2-.05l.16,0a.73.73,0,0,0,.2,0h.2l.13,0,.16.06s.13,0,.19,0,.1,0,.17,0l.16,0,.16.05.14.07a.5.5,0,0,1,.13.1l.13.07a.53.53,0,0,0,.09.11c.07,0,.13,0,.2,0s.07.06.1.11a.52.52,0,0,0,.1.11l.09.15s.07.06.1.11a.32.32,0,0,1,0,.17s.13,0,.13.1a.52.52,0,0,1,.1.11.25.25,0,0,1,0,.17.28.28,0,0,1,.06.15s0,.13,0,.17.07.1.07.16a.32.32,0,0,1,0,.17.32.32,0,0,1,0,.17.33.33,0,0,0,.07.16.86.86,0,0,1,0,.13.32.32,0,0,1,0,.17c0,.06,0,.11,0,.17v.37a.38.38,0,0,1,0,.2v.18c0,.06,0,.11,0,.17s0,.14,0,.2,0,.13,0,.19.06.1.06.16,0,.13,0,.19,0,.11,0,.17v.19c0,.06,0,.13,0,.19s0,.11,0,.17v.19c0,.06,0,.13,0,.19s0,.11,0,.17,0,.14,0,.2,0,.1,0,.17,0,.13,0,.19V59c0,.06,0,.11,0,.17v.21c0,.06,0,.14,0,.2s0,.1,0,.17,0,.13,0,.19,0,.11,0,.17,0,.14,0,.2,0,.11,0,.17V61c0,.07,0,.14,0,.2s0,.11,0,.17v.18c0,.06,0,.14,0,.2s0,.11,0,.17v.18c0,.06,0,.14,0,.2v.36c0,.06,0,.11,0,.17s0,.17,0,.23v.36c0,.06,0,.14,0,.2s0,.11,0,.17V64c0,.06,0,.11,0,.17v.55c0,.06-.06.15-.06.21s0,.11,0,.17,0,.11,0,.17v.18c0,.06,0,.14,0,.2v.54c0,.07,0,.11,0,.17v.58c0,.06,0,.14,0,.2s-.07.15-.07.21a.44.44,0,0,1,0,.19c0,.06,0,.11,0,.19v.18a.68.68,0,0,1-.06.21v.18a.4.4,0,0,0,0,.2c0,.06-.06.12-.09.19a.4.4,0,0,1,0,.2c0,.07,0,.12,0,.18a.77.77,0,0,1-.13.2c0,.08,0,.14-.06.21s0,.13,0,.2-.09.13-.09.19,0,.17-.07.21-.1.13-.13.21-.06.11-.1.19l-.09.19-.1.22-.13.18s-.07.15-.1.19-.13.14-.16.19l-.13.21s-.1.1-.17.19a.77.77,0,0,1-.13.17c-.06.06-.12.11-.16.16a1.45,1.45,0,0,1-.17.19,1.19,1.19,0,0,1-.16.16l-.16.16-.2.17s-.1.07-.16.13a1.21,1.21,0,0,1-.2.14.77.77,0,0,1-.19.14.89.89,0,0,1-.17.16c-.06,0-.13.11-.19.14a.42.42,0,0,1-.2.08.58.58,0,0,1-.19.14c-.07,0-.13.09-.2.12s-.1.1-.16.12-.17,0-.23.1-.1.1-.16.13l-.2.08a.76.76,0,0,1-.23.09,1.86,1.86,0,0,1-.19.11,1.46,1.46,0,0,1-.2,0Zm1.93-6.94c0-.06,0-.11,0-.17v-.18c0-.07,0-.14,0-.2s0-.14,0-.2v-.18c0-.06,0-.14,0-.2s-.06-.09-.06-.16.06-.14.06-.21-.06-.09-.06-.15.06-.15.06-.21,0-.11,0-.17v-.55c0-.06,0-.13,0-.19s0-.11,0-.17,0-.14,0-.2,0-.11,0-.17v-.36c0-.06,0-.14,0-.2s0-.11,0-.17V63.5c0-.06,0-.14,0-.2v-.18c0-.06,0-.11,0-.17s0-.11,0-.17.06-.15.06-.21v-.36c0-.07,0-.11,0-.17s0-.14,0-.2,0-.11,0-.17v-.18c0-.06,0-.14,0-.2s0-.11,0-.17,0-.13,0-.19,0-.11,0-.17,0-.14,0-.2,0-.11,0-.17v-.18c0-.06,0-.14,0-.2v-.18c0-.06,0-.11,0-.17v-.73c0-.06,0-.14,0-.2v-.36c0-.06,0-.11,0-.17v-.4s0-.12,0-.18v-.18s0-.12,0-.19-.07-.09-.1-.14a.32.32,0,0,0,0-.17.25.25,0,0,0,0-.17c0-.06,0-.1,0-.17s0-.15,0-.16l-.13-.13s0-.08-.1-.11a.31.31,0,0,0-.1-.12c-.06,0-.13,0-.16,0a1.36,1.36,0,0,0-.2,0h-.19s-.13,0-.2.05-.1,0-.16,0l-.23.1-.2.08-.19.11a.81.81,0,0,1-.2.14c-.06.06-.14.09-.19.14s-.13.11-.17.16-.09.16-.13.21l-.16.19a1.59,1.59,0,0,1-.07.2,1.29,1.29,0,0,0-.09.2.44.44,0,0,0-.07.21c0,.07,0,.13-.06.2s0,.14,0,.2a.61.61,0,0,1-.06.21v.18c0,.06-.07.15-.07.21s0,.11,0,.17,0,.14,0,.2v.39c0,.06,0,.11,0,.17V60c0,.06,0,.13,0,.19s0,.11,0,.17,0,.14,0,.2,0,.11,0,.17,0,.13,0,.19,0,.11,0,.17v.55c0,.06,0,.14,0,.2s0,.11,0,.17v.18c0,.06,0,.13,0,.19s0,.11,0,.17v.19c0,.06,0,.13,0,.19v.37c0,.06,0,.11,0,.17s0,.13,0,.19V64c0,.06,0,.13,0,.19s0,.11,0,.17v.19c0,.06,0,.11,0,.17v.55c0,.06-.07.14-.07.2s0,.11,0,.17,0,.11,0,.17V66c0,.06,0,.13,0,.19v.55c0,.06,0,.11,0,.17v.55c0,.06,0,.13,0,.19v.19c0,.06,0,.13,0,.19s0,.11,0,.17v.58c0,.06,0,.11,0,.17s-.07.15-.07.21,0,.11,0,.17,0,.11,0,.17,0,.13,0,.19v.19a.26.26,0,0,0,.07.15c0,.06,0,.14,0,.19s.06.09.06.15,0,.15,0,.21,0,.11.07.16a.16.16,0,0,0,.06.13l.13.1.1.14.13.07a.53.53,0,0,1,.13.1,1.11,1.11,0,0,1,.17,0h.19a.49.49,0,0,1,.2-.05.41.41,0,0,1,.19,0c.07,0,.14-.11.2-.14s.13,0,.2,0a.7.7,0,0,1,.22-.12,1.77,1.77,0,0,0,.17-.13,1.15,1.15,0,0,0,.19-.14l.2-.18.13-.17a.71.71,0,0,0,.13-.21l.1-.22a1.28,1.28,0,0,0,.13-.21.38.38,0,0,0,0-.19.4.4,0,0,0,.07-.18.54.54,0,0,0,0-.22c0-.07.1-.13.1-.22s0-.11,0-.17,0-.13,0-.19,0-.14,0-.2,0-.11,0-.17,0-.14,0-.2S154.61,67.78,154.61,67.72Z"/><path class="cls-12" d="M161.59,49.71c0-.06.11-.13.13-.17s.1-.16.13-.17.14,0,.2-.08.1-.06.2-.1l.19-.08c.1,0,.1-.07.2-.1s.1,0,.19,0l.2-.07.23-.09.19-.07.2-.08c.1,0,.1,0,.2,0l.19-.07c.1,0,.1-.07.2-.11s.1,0,.19,0l.2-.07c.1,0,.1-.07.19-.1l.2-.07.2-.07c.09,0,.09-.07.19-.11s.1,0,.2,0l.19-.07.2-.07c.1,0,.1,0,.2,0s.09-.07.19-.1.1-.07.2-.1.1,0,.19,0l.2-.06.2-.07.19-.07.2,0,.19-.07.2-.06.19-.07.2,0a.46.46,0,0,1,.2,0,1.74,1.74,0,0,0,.19-.1c.07,0,.13,0,.2,0a.42.42,0,0,1,.19,0l.2,0c.06,0,.13-.07.2-.06s.13,0,.16,0,.13,0,.19,0a1.34,1.34,0,0,0,.2,0,.46.46,0,0,1,.2,0c.06,0,.09.06.16.07a.35.35,0,0,1,.2,0s.11,0,.16,0a.94.94,0,0,1,.16,0,.36.36,0,0,1,.13.09l.2,0c0,.06.1.07.13.09s.1.1.13.12a1.58,1.58,0,0,1,.16.07.49.49,0,0,1,.1.13c0,.05.1.06.13.12a.42.42,0,0,1,.1.12c0,.05.06.07.1.13s.09.06.13.11,0,.12.06.17a.21.21,0,0,0,.07.14.31.31,0,0,0,.06.16s0,.11.07.17.1.06.1.12,0,.13,0,.18a.31.31,0,0,0,.06.16.28.28,0,0,0,0,.18c0,.06,0,.11,0,.17a.36.36,0,0,1,0,.18v.18a.32.32,0,0,0,0,.17v.19a.26.26,0,0,1,.07.16c0,.06,0,.13,0,.19a.36.36,0,0,0,0,.18c0,.06,0,.11,0,.17s0,.13,0,.19,0,.12,0,.18,0,.13,0,.19,0,.13,0,.19a1.06,1.06,0,0,0,0,.14V52c0,.06,0,.11,0,.17v.18c0,.06,0,.13,0,.19s0,.12,0,.18,0,.13,0,.19v.18c0,.06,0,.12,0,.18s0,.13,0,.19v.18a1.57,1.57,0,0,0,0,.16c0,.06.06.11.06.17s-.06.14-.06.2.06.1.06.16,0,.13,0,.19a.61.61,0,0,0,0,.23c0,.06,0,.11,0,.17a.44.44,0,0,0,0,.19.34.34,0,0,0,0,.19v.18a.51.51,0,0,1-.06.2c0,.07,0,.13,0,.2s0,.11,0,.18a.6.6,0,0,1-.07.2c0,.06,0,.13,0,.19a1.59,1.59,0,0,1-.07.2,1.57,1.57,0,0,1,0,.16l-.1.21a.56.56,0,0,1-.06.2c0,.07-.07.11-.1.18s-.07.13-.1.2a1.07,1.07,0,0,0-.06.17L172,58a.75.75,0,0,0-.13.16,1.38,1.38,0,0,1-.26.38s-.09.11-.13.15-.1.09-.17.17l-.13.16c-.06.05-.06.14-.13.19a1.22,1.22,0,0,0-.16.14l-.2.14c-.06,0-.09.09-.16.14a.17.17,0,0,0-.07.2c0,.05,0,.1,0,.18s.06,0,.1.12,0,.09,0,.17.06.08.1.13a.32.32,0,0,0,0,.17c0,.08,0,.09,0,.18s.07.07.1.12a.27.27,0,0,1,0,.17c0,.08.07.08.1.16s0,.08.06.13,0,.09,0,.17.06.08.1.16,0,.09,0,.17a.48.48,0,0,0,.06.14l.07.16c0,.08,0,.09,0,.18s.07,0,.1.12,0,.09,0,.17l.07.17.06.16c0,.06,0,.06,0,.15l.07.16.07.17c0,.05,0,.08.06.13l.07.17.06.16s.07,0,.1.13,0,.09,0,.17.07.08.07.14.06.07.1.15,0,.1,0,.19.06,0,.09.12a.3.3,0,0,1,0,.18l.06.16.07.17c0,.08.06,0,.09.13s0,.09,0,.17a.32.32,0,0,1,0,.17c0,.09.06.05.1.13s0,.09,0,.18l.07.16c0,.09.06.05.09.13a.41.41,0,0,1,0,.21c0,.09-.1.14-.13.21s-.1.18-.17.23-.13,0-.23.05-.09.09-.19.12-.1,0-.2,0-.1,0-.19.08-.1,0-.2,0l-.23.07c-.1,0-.1.05-.19.08s-.1,0-.2,0-.1.09-.2.12-.09,0-.19,0l-.2.05c-.1,0-.1.06-.19.09s-.1,0-.23,0-.1.06-.2.09-.1,0-.19,0l-.2.06-.2.06a.41.41,0,0,1-.19,0c-.07,0-.1,0-.16-.07s-.1,0-.1-.1l-.07-.16c0-.08,0-.09,0-.17l-.07-.16-.06-.16c0-.08,0,0-.07-.13l-.06-.17c0-.08-.06-.08-.1-.15s0-.1,0-.17-.07,0-.1-.12,0-.1,0-.18l-.06-.16c0-.09-.07,0-.1-.12l-.07-.17-.06-.16a.25.25,0,0,1,0-.17c0-.08-.06,0-.09-.12s0-.09,0-.17-.06-.07-.09-.15l-.07-.13a.34.34,0,0,0,0-.17c0-.07,0-.14,0-.21a.85.85,0,0,1-.06-.13c0-.08-.07-.07-.1-.12l-.06-.16a.25.25,0,0,1,0-.17c0-.08,0-.09,0-.17l-.06-.16c0-.08-.07,0-.1-.12l-.07-.16a.32.32,0,0,0,0-.17L167,63c0-.1,0-.09-.06-.13s0-.13,0-.18-.07-.06-.1-.14a.38.38,0,0,1,0-.18c0-.08-.07-.07-.1-.11s0-.08-.07-.17l-.06-.16c0-.08,0-.09,0-.17l-.07-.13a.11.11,0,0,0-.16-.06c-.1,0-.1.06-.2.1s-.1,0-.2,0-.13,0-.22,0a.25.25,0,0,0-.13.23c0,.09,0,.1,0,.19s0,.08,0,.17v.37c0,.09,0,.1,0,.19s0,.08,0,.17-.07.12-.07.21,0,.08,0,.2,0,.08,0,.17v.55c0,.09,0,.1,0,.19v.37c0,.09,0,.1,0,.19v.19c0,.09,0,.08,0,.17v.18c0,.09,0,.1,0,.19v.19c0,.09,0,.08,0,.17v.18c0,.09,0,.08,0,.17v.37c0,.12,0,.13,0,.22s0,.08,0,.17-.07.12-.07.21v.18c0,.09,0,.08,0,.17s0,.08,0,.17,0,.11,0,.2,0,.08,0,.17v.55a.34.34,0,0,1,0,.19,1,1,0,0,1-.13.2,1.11,1.11,0,0,1-.16.12.76.76,0,0,1-.2.13c-.09,0-.09,0-.19,0s-.1.1-.2.14-.1,0-.19,0l-.2.07-.2.07c-.09,0-.09,0-.22.06s-.1.09-.2.13l-.2.07c-.09,0-.09,0-.19,0s-.1.1-.2.13-.1,0-.19,0-.1.09-.2.13-.1,0-.19,0-.1.06-.23.12-.1,0-.2,0-.1,0-.16,0a.26.26,0,0,1-.17,0c-.06,0-.06-.1-.09-.12a.25.25,0,0,1,0-.17v-.18c0-.09-.06-.07-.06-.16s.06-.12.06-.21v-.18c0-.09-.06-.07-.06-.16s0-.1,0-.19,0-.11,0-.2,0-.08,0-.17,0-.1,0-.19,0-.08,0-.17V68.3c0-.09,0-.07,0-.17s0-.1,0-.19,0-.08,0-.17,0-.1,0-.2,0-.07,0-.17.06-.11.06-.2-.06-.07-.06-.16v-.37c0-.09,0-.1,0-.19v-.19c0-.09,0-.1,0-.19s0-.08,0-.17,0-.1,0-.2,0-.07,0-.17,0-.1,0-.19v-.55c0-.09,0-.08,0-.17V64.5c0-.09,0-.11,0-.2v-.36c0-.09,0-.08,0-.17V63.4c0-.09,0-.1,0-.19s0-.08,0-.17,0-.11,0-.2,0-.08,0-.17,0-.1,0-.2,0-.07,0-.16v-.74c0-.09,0-.1,0-.19V61.2c0-.1,0-.08,0-.17v-.55c0-.09,0-.11,0-.2s0-.08,0-.17,0-.1,0-.19v-.19c0-.09,0-.07,0-.17s0-.07,0-.17v-.18c0-.09,0-.1,0-.19v-.55c0-.09,0-.08,0-.17s.06-.12.06-.21v-.37c0-.09,0-.07,0-.17s0-.1,0-.19v-.18c0-.1,0-.08,0-.17s0-.11,0-.2v-.36c0-.1-.06-.07-.06-.16s.06-.12.06-.21v-.37c0-.09,0-.07,0-.17v-.73c0-.09,0-.1,0-.19v-.15c0-.1,0-.08,0-.17s0-.11,0-.2,0-.08,0-.17v-.18c0-.09,0-.11,0-.2s0-.08,0-.17V53.2c0-.09,0-.1,0-.2v-.18c0-.09,0-.08,0-.17v-.18c0-.09,0-.11,0-.2v-.73c0-.09,0-.08,0-.17s0-.1,0-.19,0-.08,0-.17v-.19c0-.09,0-.1,0-.19v-.37c0-.09,0-.08,0-.17v-.18A.51.51,0,0,1,161.59,49.71Zm4,8.46a.27.27,0,0,0,.1.11.46.46,0,0,0,.16,0,.3.3,0,0,0,.16,0c.13,0,.13,0,.23,0s.1-.06.23-.11.1,0,.2,0,.09-.09.22-.13l.2-.07.2-.07c.06-.05.13,0,.19-.09a.93.93,0,0,0,.2-.1c.06,0,.13,0,.19-.1s.1-.12.17-.17.13-.08.16-.12a1.53,1.53,0,0,0,.13-.16l.16-.17c0-.07.07-.15.1-.19l.1-.21c0-.07.06-.11.1-.19v-.18c0-.07,0-.13.06-.2s0-.13,0-.19,0-.14,0-.2,0-.13,0-.19-.06-.1-.06-.16a.46.46,0,0,0,0-.2v-.18c0-.06,0-.13,0-.19s0-.11,0-.17,0-.14,0-.2,0-.11,0-.17,0-.13,0-.19,0-.11,0-.17,0-.12,0-.18,0-.13,0-.19V53c0-.06,0-.13,0-.19v-.18c0-.06,0-.11,0-.17v-.37c0-.06,0-.11,0-.17s0-.13,0-.19-.07-.08-.07-.14a.32.32,0,0,1,0-.17s0-.11-.07-.16-.06-.07-.09-.12a1.06,1.06,0,0,1-.1-.12.27.27,0,0,0-.1-.09c-.06,0-.1-.09-.13-.11l-.13-.08s-.13,0-.16,0a.45.45,0,0,0-.2,0s-.1,0-.16,0l-.2,0a1.29,1.29,0,0,0-.19,0c-.07,0-.13.07-.2.09l-.2.07-.22.08c-.1,0-.1,0-.2,0a1.67,1.67,0,0,0-.23.11,1.39,1.39,0,0,0-.23.05.54.54,0,0,0-.19.13.53.53,0,0,0-.17.14c0,.05,0,.14-.06.21a.36.36,0,0,0-.07.18v.73c0,.09,0,.08,0,.17v.36c0,.1,0,.11,0,.2v.18c0,.09,0,.08,0,.17s0,.1,0,.2,0,.08,0,.17,0,.1,0,.19v.34c0,.09,0,.08,0,.17s0,.1,0,.19v.18c0,.1,0,.08,0,.18v.18c0,.09-.07.11-.07.2v.19c0,.09,0,.08,0,.17v.18c0,.09,0,.1,0,.2s0,.08,0,.17v.18c0,.09,0,.08,0,.17s0,.1,0,.19,0,.11,0,.2v.18c0,.09,0,.08,0,.17V58C165.54,58.1,165.58,58.12,165.61,58.17Z"/></g></g></g></svg>