<svg xmlns="http://www.w3.org/2000/svg" xmlns:xlink="http://www.w3.org/1999/xlink" viewBox="0 0 188.75 188.75"><defs><style>.cls-1{isolation:isolate;}.cls-2{fill:#7e7d82;}.cls-3{fill:#00a5f1;}.cls-4{fill:#7a67f8;}.cls-5{fill:#f85977;}.cls-6{fill:#159bff;}.cls-7{fill:#67e5ad;}.cls-10,.cls-11,.cls-8,.cls-9{fill-opacity:0.4;mix-blend-mode:multiply;}.cls-8{fill:url(#linear-gradient);}.cls-9{fill:url(#linear-gradient-2);}.cls-10{fill:url(#linear-gradient-3);}.cls-11{fill:url(#linear-gradient-4);}</style><linearGradient id="linear-gradient" x1="5203.66" y1="-780" x2="5207.08" y2="-783.61" gradientTransform="translate(5296.06 -694.22) rotate(180)" gradientUnits="userSpaceOnUse"><stop offset="0" stop-opacity="0.9"/><stop offset="0.79" stop-opacity="0"/></linearGradient><linearGradient id="linear-gradient-2" x1="3721.6" y1="-7826.75" x2="3725.03" y2="-7830.36" gradientTransform="translate(7929.53 3814.11) rotate(-90)" xlink:href="#linear-gradient"/><linearGradient id="linear-gradient-3" x1="-1830.48" y1="656.51" x2="-1827.06" y2="652.9" gradientTransform="translate(742.65 1926.18) rotate(90)" xlink:href="#linear-gradient"/><linearGradient id="linear-gradient-4" x1="-3285.32" y1="-6402.78" x2="-3281.89" y2="-6406.39" gradientTransform="translate(3381.84 6505.21)" xlink:href="#linear-gradient"/></defs><g class="cls-1"><g id="Layer_2" data-name="Layer 2"><g id="Layer_2-2" data-name="Layer 2"><path class="cls-2" d="M99.74,31.18,115,46.44l45.14,0L141.28,26.84H126.86L104,4A13.64,13.64,0,0,0,84.73,4l-23.5,23.5V58.27l27.1-27.09A8.05,8.05,0,0,1,99.74,31.18Z"/><path class="cls-2" d="M30.41,100.51a8.08,8.08,0,0,1,0-11.42L46.79,72.72V28.3L27.26,47.15V61.47L4,84.73A13.64,13.64,0,0,0,4,104l23.52,23.52H57.44Z"/><path class="cls-2" d="M88.33,158.42,71.64,141.74H27.89l20,19.85H61.57l23.16,23.16a13.62,13.62,0,0,0,19.28,0l23.41-23.41v-30.6L99.74,158.42A8.07,8.07,0,0,1,88.33,158.42Z"/><path class="cls-3" d="M184.75,84.73l-23.3-23.3H130l27.67,27.66a8.08,8.08,0,0,1,0,11.42l-16,16,.4,69.23L162.93,164V125.83L184.75,104A13.62,13.62,0,0,0,184.75,84.73Z"/><g id="UNO_Symbol"><path class="cls-4" d="M110.34,117.64h0c-4.76,0-9-3.31-14.33-8.63L84.43,97.55,88,93.9l11.57,11.48c5.13,5.12,8.13,7.12,10.72,7.13h0c2.61,0,5.78-2.11,10.93-7.26l5.91-6c3-3,4.29-5.57,4-7.94-.22-1.93-1.49-4-4-6.51l0-.06c-2.72-2.88-6-6.11-9.51-7.89a17,17,0,0,0-3-6.37c6.34.94,12,6.18,16.27,10.72,4.65,4.66,9.68,12,0,21.67l-5.9,6C119.5,114.29,115.17,117.64,110.34,117.64Z"/><path class="cls-5" d="M94.73,100.54l10.83-11c5.13-5.13,7.13-8.13,7.13-10.72s-2.1-5.79-7.26-11l-6-5.9c-6.08-6.08-9.77-4.7-14.46,0l0,.05a42.84,42.84,0,0,0-7.25,8.36A13.55,13.55,0,0,0,71,73c1.51-5.67,6.24-10.71,10.37-14.6,4.66-4.65,12-9.68,21.68,0l6,5.91c5.43,5.43,8.78,9.76,8.78,14.6s-3.31,9-8.63,14.33L98.38,104.15Z"/><path class="cls-6" d="M73.25,117.38c-6-1.27-11.3-6.23-15.36-10.55-2.13-2.13-5-5.42-5.45-9.54s1.33-8,5.48-12.14l5.9-6c5.42-5.42,9.75-8.78,14.58-8.78h0c4.76,0,9,3.31,14.33,8.63L104.5,90.66l-3.61,3.65L89.13,82.66C84,77.53,81,75.53,78.41,75.53h0c-2.61,0-5.78,2.1-10.94,7.26l-5.9,6c-3,3-4.29,5.57-4,7.94.22,1.93,1.49,4,4,6.51l.05.06a40.47,40.47,0,0,0,9,7.63A15.05,15.05,0,0,0,73.25,117.38Z"/><path class="cls-7" d="M96.27,135.92c-3.21,0-6.87-1.47-10.94-5.55l-6-5.9c-11.69-11.69-11.72-17.37-.15-28.94L90.54,84.07l3.66,3.61L82.84,99.16c-5.13,5.13-7.13,8.13-7.13,10.72s2.1,5.78,7.26,10.94l6,5.91c6.08,6.08,9.77,4.69,14.45,0l.06,0c2.76-2.6,5.84-5.77,7.66-9.07a13.91,13.91,0,0,0,6.4-2.4c-1.34,5.9-6.24,11.16-10.51,15.18C104.3,133.1,100.71,135.92,96.27,135.92Z"/><polygon class="cls-8" points="87.82 86.83 90.55 84.07 94.2 87.68 91.56 90.34 87.82 86.83"/><polygon class="cls-9" points="101.75 87.92 104.5 90.66 100.89 94.31 98.23 91.67 101.75 87.92"/><polygon class="cls-10" points="87.19 100.28 84.43 97.55 88.04 93.9 90.7 96.54 87.19 100.28"/><polygon class="cls-11" points="101.11 101.39 98.38 104.15 94.73 100.54 97.36 97.88 101.11 101.39"/></g></g></g></g></svg>