<svg id="Layer_1" data-name="Layer 1" xmlns="http://www.w3.org/2000/svg" xmlns:xlink="http://www.w3.org/1999/xlink" viewBox="0 0 199.45 199.44"><defs><clipPath id="clip-path" transform="translate(-3.29 -4.14)"><rect x="-716.46" y="-649.49" width="2104.27" height="1486.98" style="fill:none"/></clipPath></defs><g style="clip-path:url(#clip-path)"><g id="Page_2" data-name="Page 2"><path id="Path_11" data-name="Path 11" d="M96.88,37a8.65,8.65,0,0,1,12.22,0l16.64,16.63h46.92L151.55,32.56h-15L111.77,7.76a12.48,12.48,0,0,0-17.57,0L68.09,33.87v32Z" transform="translate(-3.29 -4.14)" style="fill:#7e7d81"/><path id="Path_12" data-name="Path 12" d="M173.09,69.1H141.15l28.69,28.68a8.64,8.64,0,0,1,0,12.21L152.7,127.13V199.7l22.56-22.55V136.53l23.85-23.85a12.43,12.43,0,0,0,0-17.56Z" transform="translate(-3.29 -4.14)" style="fill:#00a5f2"/><path id="Path_13" data-name="Path 13" d="M138,141.84l-28.84,28.84a8.67,8.67,0,0,1-12.22,0L79.56,153.32H32.64l21.45,21.44h15L94.26,200a12.45,12.45,0,0,0,17.57,0L138,173.79ZM65.23,139l-29-29a8.69,8.69,0,0,1,0-12.22l17-17v-47l-21,21v15L6.91,95a12.46,12.46,0,0,0,0,17.57L33.28,139Z" transform="translate(-3.29 -4.14)" style="fill:#7e7d81"/><path id="Path_14" data-name="Path 14" d="M67.91,107.06,99.83,139a4.56,4.56,0,0,0,6.42,0l31.89-31.9a4.54,4.54,0,0,0,0-6.43L106.22,68.74a4.55,4.55,0,0,0-6.41,0l-31.9,31.9A4.53,4.53,0,0,0,67.91,107.06Z" transform="translate(-3.29 -4.14)" style="fill:#00a5f2"/></g></g></svg>